<svg viewBox="0 0 640 340" xmlns="http://www.w3.org/2000/svg" font-family="ui-monospace, SFMono-Regular, Menlo, monospace">
<rect x="0" y="0" width="640" height="340" fill="#0a0a0c" rx="8"/>
<line x1="50" y1="294.0" x2="620" y2="294.0" stroke="#1e1f24" stroke-width="1"/>
<text x="42" y="298.0" text-anchor="end" font-size="10" fill="#8b9198">85</text>
<line x1="50" y1="230.5" x2="620" y2="230.5" stroke="#1e1f24" stroke-width="1"/>
<text x="42" y="234.5" text-anchor="end" font-size="10" fill="#8b9198">90</text>
<line x1="50" y1="167.0" x2="620" y2="167.0" stroke="#1e1f24" stroke-width="1"/>
<text x="42" y="171.0" text-anchor="end" font-size="10" fill="#8b9198">95</text>
<line x1="50" y1="103.5" x2="620" y2="103.5" stroke="#1e1f24" stroke-width="1"/>
<text x="42" y="107.5" text-anchor="end" font-size="10" fill="#8b9198">100</text>
<line x1="50" y1="40.0" x2="620" y2="40.0" stroke="#1e1f24" stroke-width="1"/>
<text x="42" y="44.0" text-anchor="end" font-size="10" fill="#8b9198">105</text>
<rect x="49.9" y="167.0" width="33.2" height="127.0" fill="#5fd0db" opacity="0.9" rx="2"/>
<text x="66.5" y="161.0" text-anchor="middle" font-size="10.5" fill="#f2f3f5">95</text>
<rect x="91.2" y="141.6" width="33.2" height="152.4" fill="#5fd0db" opacity="0.28" rx="2" stroke="#8b9198" stroke-width="1" stroke-dasharray="3,2"/>
<text x="107.8" y="135.6" text-anchor="middle" font-size="10.5" fill="#8b9198">97</text>
<rect x="132.3" y="103.5" width="33.2" height="190.5" fill="#5fd0db" opacity="0.28" rx="2" stroke="#8b9198" stroke-width="1" stroke-dasharray="3,2"/>
<text x="148.9" y="97.5" text-anchor="middle" font-size="10.5" fill="#8b9198">100</text>
<text x="107.8" y="312.0" text-anchor="middle" font-size="11" fill="#c6cad0">SFT base</text>
<rect x="201.4" y="128.9" width="33.2" height="165.1" fill="#b48cff" opacity="0.9" rx="2"/>
<text x="218.0" y="122.9" text-anchor="middle" font-size="10.5" fill="#f2f3f5">98</text>
<rect x="242.6" y="154.3" width="33.2" height="139.7" fill="#b48cff" opacity="0.9" rx="2"/>
<text x="259.2" y="148.3" text-anchor="middle" font-size="10.5" fill="#f2f3f5">96</text>
<rect x="283.9" y="128.9" width="33.2" height="165.1" fill="#b48cff" opacity="0.9" rx="2"/>
<text x="300.5" y="122.9" text-anchor="middle" font-size="10.5" fill="#f2f3f5">98</text>
<text x="259.2" y="312.0" text-anchor="middle" font-size="11" fill="#c6cad0">Sparse reward</text>
<rect x="352.9" y="78.1" width="33.2" height="215.9" fill="#3ddc84" opacity="0.9" rx="2"/>
<text x="369.6" y="72.1" text-anchor="middle" font-size="10.5" fill="#f2f3f5">102</text>
<rect x="394.1" y="78.1" width="33.2" height="215.9" fill="#3ddc84" opacity="0.28" rx="2" stroke="#8b9198" stroke-width="1" stroke-dasharray="3,2"/>
<text x="410.8" y="72.1" text-anchor="middle" font-size="10.5" fill="#8b9198">102</text>
<rect x="435.4" y="116.2" width="33.2" height="177.8" fill="#3ddc84" opacity="0.28" rx="2" stroke="#8b9198" stroke-width="1" stroke-dasharray="3,2"/>
<text x="452.0" y="110.2" text-anchor="middle" font-size="10.5" fill="#8b9198">99</text>
<text x="410.8" y="312.0" text-anchor="middle" font-size="11" fill="#c6cad0">Dense reward</text>
<rect x="504.4" y="167.0" width="33.2" height="127.0" fill="#ffce6a" opacity="0.9" rx="2"/>
<text x="521.0" y="161.0" text-anchor="middle" font-size="10.5" fill="#f2f3f5">95</text>
<rect x="545.6" y="154.3" width="33.2" height="139.7" fill="#ffce6a" opacity="0.9" rx="2"/>
<text x="562.2" y="148.3" text-anchor="middle" font-size="10.5" fill="#f2f3f5">96</text>
<rect x="586.9" y="179.7" width="33.2" height="114.3" fill="#ffce6a" opacity="0.9" rx="2"/>
<text x="603.5" y="173.7" text-anchor="middle" font-size="10.5" fill="#f2f3f5">94</text>
<text x="562.2" y="312.0" text-anchor="middle" font-size="11" fill="#c6cad0">Compiler-aware</text>
<text x="50" y="16" font-size="11" fill="#8b9198">valid@8 / 150 (pass@8, T=0.8)</text>
<text x="50" y="30" font-size="10" fill="#5a6066">solid = trace-retained &#183; faded/dashed = counts only, excluded from claims</text>
</svg>
